<?xml version="1.0" encoding="UTF-8"?>
<svg width="103px" height="46px" viewBox="0 0 103 46" version="1.1" xmlns="http://www.w3.org/2000/svg" xmlns:xlink="http://www.w3.org/1999/xlink">
    <!-- Generator: Sketch 46.2 (44496) - http://www.bohemiancoding.com/sketch -->
    <title>fish</title>
    <desc>Created with Sketch.</desc>
    <defs></defs>
    <g id="Welcome" stroke="none" stroke-width="1" fill="none" fill-rule="evenodd">
        <g id="assets" transform="translate(-701.000000, -1912.000000)" fill-rule="nonzero" fill="#FFFF1B">
            <g id="fish" transform="translate(701.000000, 1912.000000)">
                <path d="M101.331533,35.9439721 L78.6277084,35.9439721 C85.7066782,32.5074512 91.5532073,27.4906698 95.6627516,21.2954326 C96.0120173,20.769107 96.0120173,20.0957953 95.6627516,19.5694698 C91.7805637,13.7167721 86.2078855,8.81146047 79.5475896,5.38413953 C72.7026501,1.86182326 64.8650842,0 56.8826955,0 C45.6005248,0 34.9161102,3.6524 26.6265011,10.3138419 C22.1861555,6.76178605 16.8459503,3.97461395 11.0935227,2.21655814 C10.6027711,2.0667907 10.0673045,2.14295814 9.64306911,2.42345116 C9.21861123,2.70415814 8.9527689,3.15752558 8.92251404,3.65175814 C8.7950432,5.7440093 8.92740821,12.9133767 15.5069503,20.4325581 C9.91380562,26.8246326 8.98035421,32.9618884 8.90427214,35.944186 L1.66846652,35.944186 C0.747028078,35.944186 0,36.6626419 0,37.5488372 C0,38.4350326 0.747028078,39.1534884 1.66846652,39.1534884 L15.0718143,39.1534884 L18.3086393,43.304186 C19.6249482,44.9922791 21.7207646,46 23.9146868,46 L79.0853132,46 C81.2792354,46 83.3750518,44.9922791 84.6913607,43.304186 L87.9281857,39.1534884 L101.331533,39.1534884 C102.252972,39.1534884 103,38.4350326 103,37.5488372 C103,36.6624279 102.252972,35.9439721 101.331533,35.9439721 Z M92.2581901,20.4317023 C88.7368359,25.4071907 83.7961728,29.6218605 78.0337343,32.6105767 C74.651419,29.357414 72.7885205,25.0323442 72.7885205,20.4319163 C72.7885205,15.8710698 74.6988035,11.4685488 78.0439676,8.25090233 C83.8382181,11.2466791 88.7317192,15.442307 92.2581901,20.4317023 Z M72.9676026,34.1253674 C72.9676026,34.7700093 72.7818467,35.397107 72.4368078,35.9439721 L66.1571447,35.9439721 C65.8121058,35.397107 65.6263499,34.7700093 65.6263499,34.1253674 C65.6263499,32.1788186 67.2730151,30.5951349 69.2969762,30.5951349 C71.3209374,30.5951349 72.9676026,32.1786047 72.9676026,34.1253674 Z M74.8905659,6.78339535 C71.4150389,10.5134605 69.4515875,15.3924558 69.4515875,20.4321302 C69.4515875,22.8958047 69.9034082,25.2922977 70.7665616,27.5360279 C70.2924946,27.4382512 69.8010756,27.3856186 69.2969762,27.3856186 C68.4620756,27.3856186 67.6612117,27.5272558 66.9179654,27.7861395 C66.0892937,25.4480558 65.66973,23.0017116 65.66973,20.4993116 C65.66973,14.9470047 67.7546458,9.6719814 71.5594168,5.5384 C72.6897473,5.9096093 73.8005011,6.3263907 74.8905659,6.78339535 Z M12.3250734,34.8408279 C12.6349633,31.9265674 13.9443758,26.7591628 18.9571166,21.5183721 C19.5446393,20.9043256 19.5446393,19.9597209 18.9571166,19.3456744 C13.9439309,14.1046698 12.6347408,8.93747907 12.324851,6.02364651 C17.2528337,7.81315349 21.7766026,10.4167535 25.5161922,13.6292651 C26.1493197,14.1731349 27.1059071,14.1731349 27.7390346,13.6292651 C35.5612505,6.90984186 45.9110821,3.20908837 56.882473,3.20908837 C60.6859093,3.20908837 64.4508596,3.6648093 68.074324,4.54544186 C64.7115853,8.64500465 62.7374557,13.5963163 62.3899698,18.827693 L51.5,18.827693 C51.488432,18.827693 51.4770864,18.8291907 51.4655184,18.8294047 C50.9883369,17.0713488 49.9885918,15.368707 48.5201188,13.9564 C45.4399071,10.994214 41.0318186,10.0089581 37.5500626,11.5049209 C37.1749914,11.6660279 36.8748898,11.9546512 36.7071533,12.3155907 C35.7752592,14.3218326 35.770365,16.6481488 36.5781253,18.827907 L24.8476933,18.827907 C23.9262549,18.827907 23.1792268,19.5463628 23.1792268,20.4325581 C23.1792268,21.3187535 23.9262549,22.0372093 24.8476933,22.0372093 L38.4763952,22.0372093 C38.7197689,22.3226233 38.9793823,22.599693 39.2563477,22.8660651 C41.3775248,24.9063256 44.1287149,26.008614 46.773568,26.008614 C47.6151425,26.008614 48.445149,25.8943628 49.2415637,25.6658605 L52.1248963,28.4382698 C51.9068834,28.6682698 51.703108,28.911107 51.5122354,29.1631442 C49.9897041,28.0210605 48.112568,27.3858326 46.1609071,27.3858326 C43.3856911,27.3858326 40.7837732,28.6751163 39.1362181,30.8097302 C39.1046285,30.8090884 39.0732613,30.8090884 39.0421166,30.8090884 C37.4762052,30.8090884 36.0288661,31.3056744 34.8609395,32.1437302 C32.2952829,30.7406233 29.9024795,29.0938233 27.7390346,27.2354233 C27.1061296,26.6915535 26.1490972,26.6915535 25.5161922,27.2354233 C21.7766026,30.4479349 17.2530562,33.0513209 12.3250734,34.8408279 Z M62.5505875,35.9439721 L53.5130605,35.9439721 C53.2879287,35.3639442 53.1684665,34.748186 53.1684665,34.1253674 C53.1684665,31.2350698 55.6135486,28.883507 58.6187905,28.883507 C60.3731274,28.883507 62.0240194,29.7168558 63.0462333,31.0848744 C62.5634903,31.9990977 62.2894168,33.0316372 62.2894168,34.1253674 C62.2894168,34.7454047 62.3786242,35.3566698 62.5505875,35.9439721 Z M58.6187905,25.6742047 C57.2628834,25.6742047 55.9781641,25.971386 54.8302592,26.5011349 L51.5066739,23.3053116 C51.6199071,22.8900279 51.6979914,22.466186 51.7422613,22.0369953 L62.3812937,22.0369953 C62.4820691,23.6908558 62.7450194,25.3196837 63.1688099,26.9114977 C61.8142376,26.1188 60.2449892,25.6742047 58.6187905,25.6742047 Z M44.37854,20.9890512 L46.226311,22.7657209 C44.61346,22.6202326 42.9327581,21.8626233 41.6162268,20.5962326 C39.7297473,18.781907 38.925324,16.2482698 39.5295313,14.218707 C41.6402527,13.6378233 44.2744276,14.4112651 46.1609071,16.2253767 C47.3719914,17.3903535 48.1341469,18.8514419 48.3668423,20.2855721 L46.7377516,18.7196465 C46.0861598,18.0929767 45.0296868,18.0929767 44.3783175,18.7198605 C43.7267257,19.3463163 43.7269482,20.3625953 44.37854,20.9890512 Z M50.0428726,35.9439721 L35.7768164,35.9439721 C36.385473,34.8027442 37.6192484,34.0183907 39.0421166,34.0183907 C39.2203089,34.0183907 39.4189676,34.0387163 39.6863672,34.0845023 C40.384676,34.2038884 41.0852095,33.8853116 41.4329179,33.2907349 C42.4041879,31.6276744 44.2159201,30.5951349 46.1609071,30.5951349 C47.6322721,30.5951349 49.0386782,31.1824372 50.060892,32.213907 C49.9125097,32.8285953 49.8315335,33.4678884 49.8315335,34.1253674 C49.8315335,34.738986 49.9056134,35.3483256 50.0428726,35.9439721 Z M18.0063132,35.9435442 C21.1221188,34.4422326 24.0290324,32.6285488 26.6267235,30.5506326 C28.519432,32.0699163 30.5591879,33.4428558 32.7139568,34.6559721 C32.5115162,35.0641953 32.3513434,35.4953116 32.2369978,35.9435442 L18.0063132,35.9435442 L18.0063132,35.9435442 Z M82.0218143,41.3781767 C81.3321814,42.2624465 80.2345529,42.7902698 79.0853132,42.7902698 L23.9146868,42.7902698 C22.7654471,42.7902698 21.6675961,42.2624465 20.9781857,41.3781767 L19.2429806,39.1532744 L83.7570194,39.1532744 L82.0218143,41.3781767 Z" id="Shape"></path>
                <path d="M81.5,20 C82.8784783,20 84,18.8784783 84,17.5 C84,16.1215217 82.8784783,15 81.5,15 C80.1215217,15 79,16.1215217 79,17.5 C79,18.8784783 80.1215217,20 81.5,20 Z" id="Shape"></path>
            </g>
        </g>
    </g>
</svg>