<?xml version="1.0" encoding="UTF-8"?>
<svg width="40px" height="40px" viewBox="0 0 40 40" version="1.1" xmlns="http://www.w3.org/2000/svg" xmlns:xlink="http://www.w3.org/1999/xlink">
    <!-- Generator: Sketch 46.2 (44496) - http://www.bohemiancoding.com/sketch -->
    <title>in</title>
    <desc>Created with Sketch.</desc>
    <defs></defs>
    <g id="Welcome" stroke="none" stroke-width="1" fill="none" fill-rule="evenodd">
        <g id="assets" transform="translate(-192.000000, -32.000000)">
            <g id="in" transform="translate(192.000000, 32.000000)">
                <path d="M14.5847625,7.79266597 C13.2917837,7.85139305 12.4088945,8.05570406 11.6370678,8.35493252 C10.838507,8.66386656 10.1615703,9.07841065 9.48595376,9.75122229 C8.81099737,10.4240339 8.39496679,11.0986551 8.08504794,11.8955009 C7.78486562,12.665204 7.57990331,13.5451232 7.52098902,14.8338289 C7.46124961,16.1245087 7.44755245,16.5372432 7.44755245,19.8246437 C7.44755245,23.1120441 7.46124961,23.5246142 7.52098902,24.8152939 C7.57990331,26.1041641 7.78486562,26.9842478 8.08504794,27.7536219 C8.39496679,28.5496452 8.81000721,29.2252534 9.48595376,29.898065 C10.1605801,30.5707122 10.8375168,30.9842692 11.6370678,31.2943548 C12.4098847,31.5935832 13.2917837,31.7978943 14.5847625,31.8566213 C15.8805467,31.9151839 16.2934418,31.9298246 19.5913217,31.9298246 C22.8901917,31.9298246 23.3030867,31.9161709 24.5980459,31.8566213 C25.8908596,31.7978943 26.7735838,31.5935832 27.5455755,31.2943548 C28.3441364,30.9842692 29.0210731,30.5707122 29.6968546,29.898065 C30.3716459,29.2252534 30.7866864,28.5496452 31.0975954,27.7536219 C31.3977777,26.9842478 31.6037302,26.1041641 31.6614893,24.8152939 C31.7204035,23.5236271 31.7342657,23.1120441 31.7342657,19.8246437 C31.7342657,16.5372432 31.7204035,16.1245087 31.6614893,14.8338289 C31.60274,13.5451232 31.3977777,12.665204 31.0975954,11.8955009 C30.7866864,11.0996421 30.3716459,10.4248564 29.6968546,9.75122229 C29.0218982,9.07841065 28.3441364,8.66386656 27.5465656,8.35493252 C26.7735838,8.05570406 25.8908596,7.85040604 24.599036,7.79266597 C23.3040769,7.73410339 22.8901917,7.71929825 19.5923118,7.71929825 C16.2934418,7.71929825 15.8805467,7.73311638 14.5847625,7.79266597 M14.6846032,29.6779618 C13.5008716,29.6241698 12.8572702,29.4277549 12.4295227,29.2614437 C11.8626584,29.0415051 11.4585097,28.779454 11.0327426,28.3560268 C10.6079656,27.9325996 10.3442541,27.5297352 10.1244394,26.9645076 C9.9575981,26.5382839 9.76055704,25.8968921 9.70642851,24.7165929 C9.64767925,23.4405538 9.6359624,23.057265 9.6359624,19.8246437 C9.6359624,16.5920223 9.64866941,16.2097205 9.70642851,14.9326944 C9.76055704,13.7523953 9.95875329,13.1119904 10.1244394,12.6846152 C10.3452442,12.1195522 10.6079656,11.7166877 11.0327426,11.2922735 C11.4575195,10.8688463 11.8616682,10.6058082 12.4295227,10.3868566 C12.8572702,10.2205454 13.5008716,10.023966 14.6846032,9.97033845 C15.964875,9.91161137 16.3493856,9.89993176 19.5913217,9.89993176 C22.8342478,9.89993176 23.2177683,9.91259838 24.4988652,9.97033845 C25.6829269,10.023966 26.3255382,10.2215324 26.7539457,10.3868566 C27.3211401,10.6058082 27.7251238,10.8688463 28.1508909,11.2922735 C28.5755028,11.7157007 28.8385543,12.1195522 29.0591941,12.6846152 C29.2260354,13.1110034 29.4230764,13.7523953 29.4770399,14.9326944 C29.5359542,16.2097205 29.5476711,16.5920223 29.5476711,19.8246437 C29.5476711,23.056278 29.5359542,23.4395668 29.4770399,24.7165929 C29.4230764,25.8968921 29.2250452,26.5382839 29.0591941,26.9645076 C28.8385543,27.5297352 28.5755028,27.9325996 28.1508909,28.3560268 C27.7261139,28.779454 27.3211401,29.0415051 26.7539457,29.2614437 C26.3263633,29.4277549 25.6829269,29.6241698 24.4988652,29.6779618 C23.2187584,29.7366889 22.8342478,29.7483685 19.5913217,29.7483685 C16.3493856,29.7483685 15.964875,29.7366889 14.6846032,29.6779618 M24.6165288,13.3621974 C24.6165288,14.1641428 25.2688766,14.8152402 26.0742035,14.8152402 C26.8785403,14.8152402 27.5318783,14.1641428 27.5318783,13.3621974 C27.5318783,12.5604165 26.8796955,11.9103061 26.0742035,11.9103061 C25.2688766,11.9103061 24.6165288,12.5604165 24.6165288,13.3621974 M13.3556487,19.8246437 C13.3556487,23.2577925 16.1473938,26.040502 19.5913217,26.040502 C23.0354145,26.040502 25.8269946,23.2577925 25.8269946,19.8246437 C25.8269946,16.3914948 23.0354145,13.6086208 19.5913217,13.6086208 C16.1473938,13.6086208 13.3556487,16.3914948 13.3556487,19.8246437 M15.5438937,19.8246437 C15.5438937,17.5961402 17.3558793,15.7892543 19.5913217,15.7892543 C21.8269291,15.7892543 23.6395748,17.5961402 23.6395748,19.8246437 C23.6395748,22.0529826 21.8269291,23.860033 19.5913217,23.860033 C17.3558793,23.860033 15.5438937,22.0529826 15.5438937,19.8246437" id="Fill-1" fill="#CED0D7"></path>
                <rect id="Rectangle-23-Copy-2" stroke="#CED0D7" x="0.5" y="0.5" width="39" height="39" rx="8"></rect>
            </g>
        </g>
    </g>
</svg>