<?xml version="1.0" encoding="UTF-8"?>
<svg width="49px" height="81px" viewBox="0 0 49 81" version="1.1" xmlns="http://www.w3.org/2000/svg" xmlns:xlink="http://www.w3.org/1999/xlink">
    <!-- Generator: Sketch 46.2 (44496) - http://www.bohemiancoding.com/sketch -->
    <title>key</title>
    <desc>Created with Sketch.</desc>
    <defs></defs>
    <g id="Welcome" stroke="none" stroke-width="1" fill="none" fill-rule="evenodd">
        <g id="assets" transform="translate(-528.000000, -2031.000000)" fill-rule="nonzero" fill="#487914">
            <g id="key-copy" transform="translate(528.000000, 2031.000000)">
                <path d="M32.373455,32.5552941 C41.5413074,32.5552941 49,25.2531176 49,16.2776471 C49,7.30217647 41.5414876,0 32.373455,0 L16.626545,0 C7.45869261,0 0,7.30217647 0,16.2776471 C0,25.2531176 7.45869261,32.5552941 16.626545,32.5552941 L20.0135006,32.5552941 L20.0135006,79.6764706 C20.0135006,80.4074118 20.6187905,81 21.3653988,81 L27.6347815,81 C28.3813898,81 28.9866797,80.4074118 28.9866797,79.6764706 L28.9866797,78.8823529 L40.8824823,78.8823529 C41.6290906,78.8823529 42.2343805,78.2897647 42.2343805,77.5588235 L42.2343805,69.4411765 C42.2343805,68.7102353 41.6290906,68.1176471 40.8824823,68.1176471 L35.8714464,68.1176471 L35.8714464,62.7352941 C35.8714464,62.0043529 35.2661566,61.4117647 34.5195483,61.4117647 L28.9864994,61.4117647 L28.9864994,32.5552941 L32.373455,32.5552941 Z M2.7036161,16.2776471 C2.7036161,8.76176471 8.94938567,2.64705882 16.6263648,2.64705882 L32.373455,2.64705882 C40.0504341,2.64705882 46.2962036,8.76176471 46.2962036,16.2776471 C46.2962036,23.7935294 40.0504341,29.9082353 32.373455,29.9082353 L16.626545,29.9082353 C8.94938567,29.9082353 2.7036161,23.7937059 2.7036161,16.2776471 Z M33.1674698,64.0588235 L33.1674698,69.4411765 C33.1674698,70.1721176 33.7727597,70.7647059 34.519368,70.7647059 L39.5304039,70.7647059 L39.5304039,76.2352941 L28.9864994,76.2352941 L28.9864994,64.0588235 L33.1674698,64.0588235 Z M26.2827031,78.3529412 L22.7171167,78.3529412 L22.7171167,32.5552941 L26.2827031,32.5552941 L26.2827031,78.3529412 Z" id="Shape"></path>
                <path d="M41,16.5 C41,11.8130972 37.1032524,8 32.3135299,8 L16.6864701,8 C11.8967476,8 8,11.8130972 8,16.5 C8,21.1869028 11.8967476,25 16.6864701,25 L32.3137088,25 C37.1032524,25 41,21.1869028 41,16.5 Z M11,16.5 C11,13.4672974 13.6312945,11 16.8655757,11 L32.1344243,11 C35.3687055,11 38,13.4672974 38,16.5 C38,19.5327026 35.3687055,22 32.1344243,22 L16.8655757,22 C13.6312945,22 11,19.5327026 11,16.5 Z" id="Shape"></path>
            </g>
        </g>
    </g>
</svg>