<?xml version="1.0" encoding="UTF-8"?>
<svg width="119px" height="52px" viewBox="0 0 119 52" version="1.1" xmlns="http://www.w3.org/2000/svg" xmlns:xlink="http://www.w3.org/1999/xlink">
    <!-- Generator: Sketch 46.2 (44496) - http://www.bohemiancoding.com/sketch -->
    <title>meat</title>
    <desc>Created with Sketch.</desc>
    <defs></defs>
    <g id="Welcome" stroke="none" stroke-width="1" fill="none" fill-rule="evenodd">
        <g id="assets" transform="translate(-697.000000, -1829.000000)" fill="#FFFF1B">
            <g id="Page-1" transform="translate(697.000000, 1829.000000)">
                <path d="M74.3989,43.8084 C76.9619,40.4364 77.0599,35.9684 74.5199,31.3784 C75.4589,29.2234 75.5429,26.8544 74.6379,24.8394 C74.4899,24.5094 74.2249,24.2464 73.8929,24.0984 C72.0469,23.2784 69.9079,23.2754 67.9029,23.9884 C67.0169,23.3174 66.0859,22.6854 65.1189,22.1114 C54.6389,15.8864 33.0219,10.6754 20.2409,13.0204 L16.9519,10.2304 C17.7409,9.3414 18.2199,8.2314 18.3809,6.9114 C18.6029,5.0814 18.0659,3.3044 16.9059,2.0344 C15.7009,0.7144 13.9929,-0.0256 12.2109,0.0004 C10.4329,0.0284 8.7509,0.8164 7.5969,2.1634 C6.4129,3.5444 5.9139,5.3774 6.1959,7.1414 L6.1769,7.1414 C3.9999,7.1414 1.9709,8.2804 0.8289,10.2094 C-0.4571,12.3824 -0.2281,15.2574 1.3869,17.2014 C2.5709,18.6254 4.3019,19.4504 6.1359,19.4644 L6.1839,19.4644 C8.0019,19.4644 9.7169,18.6774 10.8969,17.3014 C10.9179,17.2764 10.9389,17.2514 10.9599,17.2254 L11.8489,17.9804 C6.0399,24.2934 6.0669,31.0294 7.1759,35.6644 C8.0899,39.4864 9.8409,42.4544 10.7439,43.8084 L74.3989,43.8084 Z M66.2859,28.4134 C67.9529,26.7554 70.2799,26.0484 72.1449,26.5794 C72.6779,28.4344 71.9669,30.7504 70.3009,32.4094 C69.2309,33.4744 67.8879,34.1444 66.5709,34.3494 L68.0099,32.9164 C68.5859,32.3444 68.5859,31.4144 68.0099,30.8424 C67.4339,30.2694 66.5009,30.2694 65.9249,30.8424 L64.2939,32.4664 C64.4269,31.0484 65.1229,29.5714 66.2859,28.4134 L66.2859,28.4134 Z M63.6069,24.6304 C64.1059,24.9274 64.5939,25.2414 65.0719,25.5674 C64.7709,25.8064 64.4799,26.0624 64.2019,26.3394 C61.7309,28.7984 60.7569,32.2194 61.6279,35.1194 L59.7999,36.9374 C58.8779,36.3564 57.7939,36.0134 56.6289,35.9894 C56.1169,32.6864 54.4559,29.7174 51.8639,27.5174 C47.7989,24.0684 40.7789,21.6104 33.9889,19.2324 C30.3829,17.9704 26.9059,16.7524 24.2339,15.4984 C35.7199,14.7544 53.7329,18.7644 63.6069,24.6304 L63.6069,24.6304 Z M59.7439,42.1464 C59.7439,42.7354 59.5799,43.3084 59.2749,43.8084 L53.7269,43.8084 C53.4219,43.3084 53.2579,42.7354 53.2579,42.1464 C53.2579,40.3674 54.7119,38.9194 56.5009,38.9194 C58.2889,38.9194 59.7439,40.3674 59.7439,42.1464 L59.7439,42.1464 Z M21.2529,17.2724 C24.2989,18.9494 28.5609,20.4424 33.0099,22.0004 C39.5449,24.2884 46.3029,26.6544 49.9509,29.7504 C52.0479,31.5294 53.3719,33.9484 53.7419,36.6334 C53.4619,36.7724 53.1939,36.9324 52.9409,37.1104 C51.4769,35.4264 49.3339,34.4214 47.0669,34.4214 C42.7859,34.4214 39.3029,37.8864 39.3029,42.1464 C39.3029,42.7074 39.3689,43.2644 39.4899,43.8084 L35.7829,43.8084 C35.1199,41.1174 32.6769,39.1144 29.7709,39.1144 C29.7479,39.1144 29.7249,39.1154 29.7009,39.1154 C28.1489,36.5994 26.6389,33.8314 25.1739,31.1444 C22.9249,27.0184 20.7709,23.0664 18.6259,20.3384 L21.2529,17.2724 Z M50.5409,43.8084 L42.5559,43.8084 C42.3569,43.2784 42.2519,42.7154 42.2519,42.1464 C42.2519,39.5044 44.4119,37.3544 47.0669,37.3544 C48.6169,37.3544 50.0759,38.1164 50.9779,39.3674 C50.5519,40.2024 50.3099,41.1464 50.3099,42.1464 C50.3099,42.7124 50.3879,43.2714 50.5409,43.8084 L50.5409,43.8084 Z M32.6559,43.8084 L14.3069,43.8084 C14.8449,42.7654 15.9349,42.0484 17.1919,42.0484 C17.3499,42.0484 17.5249,42.0664 17.7609,42.1084 C18.3779,42.2174 18.9969,41.9264 19.3039,41.3834 C20.1629,39.8634 21.7629,38.9184 23.4819,38.9184 C25.0049,38.9194 26.4349,39.6624 27.3369,40.8894 C27.4359,41.0474 27.5329,41.2074 27.6319,41.3634 C27.6719,41.4264 27.7169,41.4844 27.7639,41.5384 C28.0939,41.9794 28.6479,42.2074 29.2019,42.1084 C29.4379,42.0664 29.6139,42.0484 29.7709,42.0484 C31.0279,42.0484 32.1179,42.7654 32.6559,43.8084 L32.6559,43.8084 Z M11.5319,13.8564 C11.1679,13.5464 10.6749,13.4334 10.2109,13.5514 C9.7469,13.6694 9.3689,14.0044 9.1979,14.4494 C9.0519,14.8294 8.8739,15.1404 8.6529,15.3974 C8.0349,16.1194 7.1359,16.5304 6.1839,16.5304 L6.1589,16.5304 C5.1839,16.5234 4.2949,16.0974 3.6589,15.3314 C2.8329,14.3374 2.7109,12.8094 3.3689,11.6984 C4.0639,10.5254 5.3729,9.9044 6.7049,10.1184 C7.5119,10.2464 8.3359,9.9444 8.8549,9.3274 C9.3529,8.7364 9.4989,7.9514 9.2449,7.2254 C8.8669,6.1454 9.0949,4.9354 9.8389,4.0674 C10.4439,3.3614 11.3249,2.9494 12.2579,2.9344 C13.2019,2.9254 14.0789,3.3014 14.7239,4.0074 C15.2989,4.6374 15.5709,5.5904 15.4539,6.5584 C15.3159,7.6894 14.8569,8.4024 13.9199,8.9394 C13.5049,9.1784 13.2319,9.6014 13.1889,10.0764 C13.1449,10.5514 13.3359,11.0174 13.6999,11.3274 L18.7049,15.5744 C18.7299,15.5944 18.7559,15.6154 18.7809,15.6364 L16.6109,18.1684 C16.5859,18.1474 16.5619,18.1244 16.5369,18.1034 L11.5319,13.8564 Z M12.5719,41.1804 C11.7579,39.7924 10.6719,37.6124 10.0439,34.9854 C8.6849,29.3064 10.0479,24.2304 14.0919,19.8844 L14.6239,20.3354 C17.0509,22.3944 19.7379,27.3244 22.5829,32.5424 C23.2169,33.7074 23.8599,34.8874 24.5139,36.0584 C24.1739,36.0114 23.8299,35.9854 23.4819,35.9854 C21.0299,35.9854 18.7309,37.1634 17.2749,39.1154 C17.2479,39.1144 17.2199,39.1144 17.1919,39.1144 C15.3569,39.1144 13.7069,39.9134 12.5719,41.1804 L12.5719,41.1804 Z M70.1929,43.8084 L62.4609,43.8084 C62.6129,43.2714 62.6919,42.7124 62.6919,42.1464 C62.6919,41.0164 62.3839,39.9584 61.8489,39.0484 L63.7959,37.1104 C64.4279,37.2754 65.0829,37.3564 65.7449,37.3564 C68.0809,37.3564 70.5119,36.3484 72.3859,34.4834 C72.4669,34.4024 72.5469,34.3204 72.6259,34.2364 C73.7159,36.9124 74.2939,40.8874 70.1929,43.8084 L70.1929,43.8084 Z" id="Fill-1"></path>
                <path d="M102.1059,30.4051 C104.2099,32.1911 110.0249,36.3441 114.7199,37.6631 L110.3439,31.0981 C110.0639,30.6781 110.0639,30.1321 110.3439,29.7121 L114.7209,23.1471 C110.0249,24.4661 104.2099,28.6181 102.1059,30.4051 M117.3299,40.5721 C113.5679,40.5721 108.9309,38.1281 105.7039,36.0781 C104.1529,35.0931 99.0929,31.7721 99.0929,30.4051 C99.0929,28.5011 111.0619,20.2371 117.3299,20.2371 C117.7909,20.2371 118.2139,20.4911 118.4319,20.8971 C118.6489,21.3031 118.6259,21.7971 118.3699,22.1801 L112.8859,30.4051 L118.3699,38.6291 C118.6259,39.0121 118.6489,39.5061 118.4319,39.9121 C118.2139,40.3191 117.7909,40.5721 117.3299,40.5721" id="Fill-4"></path>
                <path d="M74.2056,43.2444 L73.7996,40.7774 C86.2926,38.7234 96.1636,32.6374 99.2526,30.4054 C96.2376,28.2274 86.7466,22.3604 74.6416,20.1774 C72.8936,19.8624 73.0446,18.0794 73.1256,17.1214 C73.1546,16.7764 73.1886,16.3874 73.1886,15.9664 C73.1886,14.9324 73.0306,14.0564 72.8626,13.4174 C71.9756,13.8854 70.6736,14.7054 69.3776,16.0014 C68.9066,16.4724 68.4796,16.9904 68.1036,17.4484 C67.2346,18.5044 66.5486,19.3394 65.5206,19.3394 C63.2236,19.3394 59.7796,19.7244 55.5626,20.4524 L55.1376,17.9884 C59.4296,17.2474 62.8506,16.8614 65.3096,16.8404 C65.5186,16.6554 65.8916,16.2024 66.1736,15.8594 C66.5856,15.3584 67.0536,14.7894 67.6096,14.2334 C70.3346,11.5084 73.0786,10.5724 73.1936,10.5344 L74.2226,10.1914 L74.7076,11.1614 C74.7476,11.2414 75.6886,13.1564 75.6886,15.9664 C75.6886,16.4634 75.6506,16.9244 75.6166,17.3324 C75.6036,17.4804 75.5896,17.6544 75.5806,17.8084 C83.4626,19.3004 90.0936,22.2384 94.3016,24.4634 C96.2106,25.4734 102.4426,28.8874 102.4426,30.4054 C102.4426,32.0064 95.4346,35.7534 94.0296,36.4884 C89.5836,38.8144 82.5346,41.8744 74.2056,43.2444" id="Fill-6"></path>
                <path d="M90.5757,31.6551 L73.3497,31.6551 C72.6597,31.6551 72.0997,31.0951 72.0997,30.4051 C72.0997,29.7151 72.6597,29.1551 73.3497,29.1551 L90.5757,29.1551 C91.2657,29.1551 91.8257,29.7151 91.8257,30.4051 C91.8257,31.0951 91.2657,31.6551 90.5757,31.6551" id="Fill-8"></path>
                <path d="M9.3242,42.8079 C8.5102,42.8079 7.8502,43.4649 7.8502,44.2749 C7.8502,45.0849 8.5102,45.7419 9.3242,45.7419 L21.1662,45.7419 L24.0262,49.5359 C25.1882,51.0789 27.0402,51.9999 28.9782,51.9999 L77.7212,51.9999 C79.6592,51.9999 81.5112,51.0789 82.6742,49.5359 L85.5342,45.7419 L97.3762,45.7419 C98.1902,45.7419 98.8502,45.0849 98.8502,44.2749 C98.8502,43.4649 98.1902,42.8079 97.3762,42.8079 L9.3242,42.8079 Z M80.3162,47.7759 C79.7062,48.5839 78.7372,49.0669 77.7212,49.0669 L28.9782,49.0669 C27.9632,49.0669 26.9932,48.5839 26.3842,47.7759 L24.8512,45.7419 L81.6502,45.7419 C81.6512,45.7419 81.6532,45.7429 81.6542,45.7429 C81.6552,45.7429 81.6552,45.7419 81.6562,45.7419 L81.8492,45.7419 L80.3162,47.7759 Z" id="Fill-10"></path>
            </g>
        </g>
    </g>
</svg>