<?xml version="1.0" encoding="UTF-8"?>
<svg width="66px" height="83px" viewBox="0 0 66 83" version="1.1" xmlns="http://www.w3.org/2000/svg" xmlns:xlink="http://www.w3.org/1999/xlink">
    <!-- Generator: Sketch 46.2 (44496) - http://www.bohemiancoding.com/sketch -->
    <title>microscope</title>
    <desc>Created with Sketch.</desc>
    <defs></defs>
    <g id="Welcome" stroke="none" stroke-width="1" fill="none" fill-rule="evenodd">
        <g id="assets" transform="translate(-527.000000, -1894.000000)" fill-rule="nonzero" fill="#487914">
            <g id="microscope-copy" transform="translate(527.000000, 1894.000000)">
                <path d="M17.3446697,44.6635366 L19.0647712,44.6635366 L19.0647712,50.6634406 C19.0647712,51.4015778 19.6668247,52 20.409441,52 L25.8239778,52 C26.566594,52 27.1686475,51.4015778 27.1686475,50.6634406 L27.1686475,44.6635366 L29.8579869,44.6635366 L29.8579869,50.6634406 C29.8579869,51.4015778 30.4600404,52 31.2026567,52 L36.6173727,52 C37.359989,52 37.9620425,51.4015778 37.9620425,50.6634406 L37.9620425,44.6635366 L39.682144,44.6635366 C40.4247603,44.6635366 41.0268137,44.0651144 41.0268137,43.3269773 C41.0268137,42.5888401 40.4247603,41.9904179 39.682144,41.9904179 L38.8765972,41.9904179 L38.8765972,23.2999719 L42.5532828,23.2999719 L54.2915324,29.9494438 C56.4700766,31.1952953 58.3106605,34.358664 58.3106605,36.8569607 L58.3106605,45.896379 C58.3106605,46.6345161 58.912714,47.2329383 59.6553303,47.2329383 C60.3979465,47.2329383 61,46.6345161 61,45.896379 L61,36.8569607 C61,33.4056081 58.6423457,29.3536947 55.6279548,27.6297114 L43.5754111,20.8022098 C43.3726349,20.6872657 43.1431446,20.6268532 42.9097099,20.6268532 L38.8764179,20.6268532 L38.8764179,13.7927579 C38.8764179,13.0546207 38.2743644,12.4561986 37.5317482,12.4561986 L35.2666072,12.4561986 L35.2666072,1.33655935 C35.2666072,0.598422175 34.6645537,0 33.9219374,0 L23.104697,0 C22.3620807,0 21.7600273,0.598422175 21.7600273,1.33655935 L21.7600273,12.4561986 L19.4948863,12.4561986 C18.75227,12.4561986 18.1502165,13.0546207 18.1502165,13.7927579 L18.1502165,41.9904179 L17.3446697,41.9904179 C16.6020535,41.9904179 16,42.5888401 16,43.3269773 C16,44.0651144 16.6018742,44.6635366 17.3446697,44.6635366 L17.3446697,44.6635366 Z M24.4791287,49.3268813 L21.7539314,49.3268813 L21.7539314,44.6635366 L24.4791287,44.6635366 L24.4791287,49.3268813 Z M35.2725237,49.3268813 L32.5471471,49.3268813 L32.5471471,44.6635366 L35.2725237,44.6635366 L35.2725237,49.3268813 Z M24.4491874,2.67311871 L32.5770884,2.67311871 L32.5770884,12.4561986 L24.4491874,12.4561986 L24.4491874,2.67311871 Z M20.839556,15.1293173 L36.1870784,15.1293173 L36.1870784,41.9904179 L20.839556,41.9904179 L20.839556,15.1293173 Z" id="Shape"></path>
                <path d="M59.2676613,49.6342959 C55.5557542,49.6342959 52.5356778,52.6206911 52.5356778,56.2915931 C52.5356778,59.5116024 54.859483,62.2043115 57.9355097,62.8175044 L57.9355097,80.3652553 L3.35281993,80.3652553 L6.61961079,72.8339254 C7.57058938,70.6414666 10.4123351,68.7892411 12.8245951,68.7892411 L53.8678293,68.7892411 C54.6035322,68.7892411 55.1999809,68.1994095 55.1999809,67.4718687 C55.1999809,66.7443279 54.6035322,66.1544964 53.8678293,66.1544964 L49.8713747,66.1544964 L49.8713747,37.6037003 C49.8713747,37.1294463 49.6134701,36.6917274 49.1962403,36.457762 L43.3353063,33.1715328 C42.695163,32.8128562 41.882373,33.0348774 41.5193173,33.6677431 C41.1564392,34.3006087 41.3811287,35.1045572 42.0210944,35.463585 L47.2068939,38.3712893 L47.2068939,54.9743964 L17.3508909,54.9743964 C16.615188,54.9743964 16.0187393,55.5642279 16.0187393,56.2917687 L16.0187393,61.5612581 C16.0187393,62.288799 16.615188,62.8786305 17.3508909,62.8786305 L43.2107945,62.8786305 C43.9464974,62.8786305 44.5429461,62.288799 44.5429461,61.5612581 C44.5429461,60.8337173 43.9464974,60.2438858 43.2107945,60.2438858 L18.6830424,60.2438858 L18.6830424,57.6091411 L47.2072492,57.6091411 L47.2072492,66.154672 L12.8247727,66.154672 C9.34448239,66.154672 5.54340995,68.6323859 4.17129385,71.7954847 L0.107876357,81.1634073 C-0.0686781296,81.5703875 -0.0265821404,82.0379669 0.219954708,82.4077094 C0.466491556,82.7774519 0.884254284,83 1.33221245,83 L59.2680165,83 C60.0037194,83 60.6001681,82.4101685 60.6001681,81.6826277 L60.6001681,62.8175044 C63.6761948,62.2043115 66,59.5116024 66,56.2915931 C65.9998224,52.6208668 62.979746,49.6342959 59.2676613,49.6342959 Z M59.2676613,60.3143213 C57.0248509,60.3143213 55.1999809,58.5098725 55.1999809,56.2917687 C55.1999809,54.0738407 57.0246733,52.2692162 59.2676613,52.2692162 C61.5106493,52.2692162 63.3353416,54.073665 63.3353416,56.2917687 C63.3355193,58.5096968 61.5106493,60.3143213 59.2676613,60.3143213 Z" id="Shape"></path>
            </g>
        </g>
    </g>
</svg>