<?xml version="1.0" encoding="UTF-8"?>
<svg width="111px" height="50px" viewBox="0 0 111 50" version="1.1" xmlns="http://www.w3.org/2000/svg" xmlns:xlink="http://www.w3.org/1999/xlink">
    <!-- Generator: Sketch 46.2 (44496) - http://www.bohemiancoding.com/sketch -->
    <title>vegetarian-food</title>
    <desc>Created with Sketch.</desc>
    <defs></defs>
    <g id="Welcome" stroke="none" stroke-width="1" fill="none" fill-rule="evenodd">
        <g id="assets" transform="translate(-697.000000, -1999.000000)" fill-rule="nonzero" fill="#FFFF1B">
            <g id="vegetarian-food" transform="translate(697.000000, 1999.000000)">
                <path d="M109.201944,38.647343 L99.3195875,38.647343 C98.5802268,34.7876812 95.5261685,31.7487923 91.6752117,31.063285 C91.4330734,29.6881643 90.8893413,28.3821256 90.0883672,27.2364734 C92.4040238,24.0533816 93.0220756,20.0555556 91.5797948,16.8021739 C91.39927,16.394686 91.0758596,16.0688406 90.6714168,15.8869565 C87.6633888,14.5330918 84.0138143,14.9811594 80.9741404,16.9350242 C79.5965896,14.8442029 77.2473693,13.52657 74.6792657,13.52657 C70.5746631,13.52657 67.2266825,16.8437198 67.1319849,20.9565217 C65.9927365,19.0859903 64.3349287,17.5574879 62.3549093,16.5927536 C62.801067,15.6227053 63.0518359,14.5434783 63.0518359,13.4057971 C63.0518359,9.77149758 60.5096242,6.72391304 57.1225659,5.97391304 C56.3781706,2.56135266 53.3533607,0 49.7462203,0 C47.9709395,0 46.2850821,0.625120773 44.9514039,1.73309179 C43.6177257,0.625120773 41.9318683,0 40.1565875,0 C36.5494471,0 33.5246371,2.56135266 32.7802419,5.97391304 C29.3931836,6.72391304 26.8509719,9.77149758 26.8509719,13.4057971 C26.8509719,17.6012077 30.2387495,21.0144928 34.4028078,21.0144928 C36.4197473,21.0144928 38.2985961,20.1903382 39.6759071,18.8229469 C40.2903629,20.428744 41.0563348,22.6758454 41.7129849,25.3439614 C41.0750346,25.1949275 40.4682505,25.1205314 39.8614665,25.1205314 C38.4721685,25.1205314 37.1547927,25.4449275 35.9735896,26.0222222 C33.8545205,23.044686 30.4554752,21.2560386 26.7311015,21.2560386 C26.3897106,21.2560386 26.0432851,21.2811594 25.6932635,21.3188406 C25.5340756,20.2714976 25.1310713,19.1188406 24.2994104,18.071256 C23.6789611,17.2898551 22.5476242,17.1630435 21.7720626,17.7884058 C20.9967408,18.413285 20.8708769,19.5533816 21.4913261,20.3347826 C21.7471296,20.6570048 21.9115918,20.9944444 22.016838,21.3190821 C21.6663369,21.281401 21.319432,21.2562802 20.9775616,21.2562802 C14.69827,21.2560386 9.58963283,26.4031401 9.58963283,32.7294686 C9.58963283,34.8620773 10.1623737,36.8905797 11.2145961,38.647343 L1.79805616,38.647343 C0.805049676,38.647343 0,39.4584541 0,40.4589372 C0,41.4594203 0.805049676,42.2705314 1.79805616,42.2705314 L16.2424406,42.2705314 L19.7306695,46.9565217 C21.149216,48.8623188 23.4078143,50 25.7721382,50 L85.2278618,50 C87.5921857,50 89.850784,48.8623188 91.2693305,46.9565217 L94.7575594,42.2705314 L109.201944,42.2705314 C110.19495,42.2705314 111,41.4594203 111,40.4589372 C111,39.4584541 110.19495,38.647343 109.201944,38.647343 Z M81.3922484,21.2171498 C83.4250108,19.1688406 86.2637819,18.2956522 88.5384428,18.9512077 C89.1895788,21.2427536 88.322676,24.1031401 86.2899136,26.1514493 C84.8711274,27.5809179 83.0601253,28.4355072 81.3222441,28.6002415 L83.3130518,26.5949275 C84.0152527,25.8874396 84.0154924,24.7403382 83.3132916,24.0328502 C82.6110907,23.3253623 81.4725616,23.3251208 80.7703607,24.0326087 L79.0149784,25.8007246 C79.2657473,24.1816425 80.0870994,22.5321256 81.3922484,21.2171498 Z M74.6792657,17.1497585 C76.1860367,17.1497585 77.5482441,18.0157005 78.2128056,19.3466184 C77.4998164,20.1794686 76.9129309,21.0833333 76.458622,22.0263285 C75.296838,21.5200483 74.0449114,21.2560386 72.7613391,21.2560386 C72.0735227,21.2560386 71.3964946,21.3342995 70.738406,21.4816425 C70.7285767,21.3669082 70.7235421,21.2514493 70.7235421,21.1352657 C70.7235421,18.9376812 72.4981037,17.1497585 74.6792657,17.1497585 Z M64.2994471,23.2611111 C63.9261706,23.2137681 63.5500173,23.1884058 63.1717063,23.1884058 C58.5145011,23.1884058 54.6316587,26.5937198 53.8467473,31.0625604 C53.5171037,31.1210145 53.1912959,31.1985507 52.8695637,31.2922705 C52.0050583,28.9193237 50.2559093,26.9968599 48.0423823,25.9599034 C48.728041,23.0297101 49.5661749,20.5562802 50.2283391,18.8246377 C51.6054104,20.1908213 53.48354,21.0144928 55.5,21.0144928 C57.1796242,21.0144928 58.7326652,20.4584541 59.9881879,19.5205314 C61.8524125,20.1777778 63.387473,21.5352657 64.2994471,23.2611111 Z M41.2759374,13.752657 C40.8403283,13.2524155 40.1678553,13.0333333 39.5231922,13.181401 C38.8792484,13.3299517 38.3678812,13.8222222 38.191432,14.4635266 C37.7179438,16.1874396 36.1596285,17.3913043 34.4028078,17.3913043 C32.2216458,17.3913043 30.4470842,15.6033816 30.4470842,13.4057971 C30.4470842,11.2082126 32.2216458,9.42028986 34.4028078,9.42028986 C35.3958143,9.42028986 36.2008639,8.60917874 36.2008639,7.60869565 C36.2008639,5.41111111 37.9754255,3.62318841 40.1565875,3.62318841 C41.4830734,3.62318841 42.7153413,4.29227053 43.4530238,5.41256039 C43.7862635,5.91859903 44.3486955,6.22294686 44.9514039,6.22294686 C45.5541123,6.22294686 46.116784,5.91859903 46.449784,5.41256039 C47.1872268,4.29202899 48.4194946,3.62318841 49.7462203,3.62318841 C51.9273823,3.62318841 53.7019438,5.41111111 53.7019438,7.60869565 C53.7019438,8.60917874 54.5069935,9.42028986 55.5,9.42028986 C57.681162,9.42028986 59.4557235,11.2082126 59.4557235,13.4057971 C59.4557235,15.6033816 57.681162,17.3913043 55.5,17.3913043 C53.7431793,17.3913043 52.1848639,16.1874396 51.7108963,14.4635266 C51.5344471,13.8222222 51.0230799,13.3299517 50.3791361,13.181401 C50.2458402,13.1507246 50.1113456,13.1357488 49.9780497,13.1357488 C49.4669222,13.1357488 48.9720972,13.3557971 48.6263909,13.752657 C47.6681469,14.8528986 46.3629978,15.4589372 44.9511641,15.4589372 C43.5393305,15.4589372 42.2341814,14.8528986 41.2759374,13.752657 Z M46.3409417,18.9594203 C45.8890302,20.2442029 45.4042743,21.7678744 44.9514039,23.4809179 C44.4987732,21.7678744 44.0137775,20.2442029 43.5618661,18.9594203 C44.0185724,19.0374396 44.4824708,19.0821256 44.9514039,19.0821256 C45.4200972,19.0821256 45.8839957,19.0374396 46.3409417,18.9594203 Z M39.8614665,28.7439614 C40.2038164,28.7439614 40.5574341,28.7891304 40.9422181,28.8818841 C41.6938056,29.0630435 42.4557019,29.0630435 43.2068099,28.8818841 C43.591594,28.7891304 43.9454514,28.7439614 44.2875616,28.7439614 C47.363676,28.7439614 49.8660907,31.3987923 49.8660907,34.6618357 C49.8660907,36.1439614 49.3410583,37.5625604 48.4091857,38.647343 L35.7398423,38.647343 C34.8079698,37.5625604 34.2829374,36.1439614 34.2829374,34.6618357 C34.2829374,31.3987923 36.7853521,28.7439614 39.8614665,28.7439614 Z M15.8602937,38.647343 C14.1547775,37.1543478 13.1857451,35.0289855 13.1857451,32.7294686 C13.1857451,28.4009662 16.6811663,24.8792271 20.9773218,24.8792271 C21.6984622,24.8792271 22.4402203,25.0086957 23.3119179,25.2864734 C23.6650562,25.3990338 24.0436069,25.3990338 24.3965054,25.2864734 C25.268203,25.0086957 26.0099611,24.8792271 26.7311015,24.8792271 C29.309514,24.8792271 31.6594536,26.1330918 33.1058099,28.2142512 C31.6050324,29.9135266 30.6868251,32.1780193 30.6868251,34.6618357 C30.6868251,36.0524155 30.9812268,37.4099034 31.5285551,38.647343 L15.8602937,38.647343 Z M88.3924406,44.7826087 C87.6492441,45.7809179 86.4663629,46.3768116 85.2278618,46.3768116 L25.7721382,46.3768116 C24.5336371,46.3768116 23.3505162,45.7809179 22.6075594,44.7826087 L20.737581,42.2705314 L90.262419,42.2705314 L88.3924406,44.7826087 Z M52.620473,38.647343 C53.1351965,37.4835749 53.4231253,36.213285 53.45573,34.9094203 C54.1075853,34.6654589 54.7939633,34.5410628 55.5,34.5410628 C55.9768445,34.5410628 56.43427,34.3502415 56.7713456,34.0103865 C57.1086609,33.6707729 57.2980562,33.2099034 57.2980562,32.7294686 C57.2980562,29.4664251 59.9330475,26.8115942 63.1717063,26.8115942 C64.1160454,26.8115942 65.0529525,27.0628019 65.9560562,27.5582126 C66.7189114,27.9768116 67.6692441,27.7859903 68.2146544,27.105314 C69.3486285,25.6905797 71.0057171,24.8792271 72.7610994,24.8792271 C73.690095,24.8792271 74.592,25.1067633 75.4097559,25.5364734 C75.2536847,26.7818841 75.3224903,28.0270531 75.6305572,29.2091787 L73.4076803,31.4483092 C72.7054795,32.1557971 72.7052397,33.3028986 73.4074406,34.0103865 C73.7586609,34.3642512 74.2187235,34.5410628 74.6790259,34.5410628 C75.1390886,34.5410628 75.5991512,34.3642512 75.9503715,34.010628 L78.0715983,31.8741546 C78.9296307,32.1321256 79.8241037,32.2611111 80.7312829,32.2611111 C83.0526933,32.2611111 85.450581,31.4347826 87.4958099,29.8838164 C87.9678596,30.7504831 88.224622,31.7277778 88.224622,32.7294686 C88.224622,33.7299517 89.0296717,34.5410628 90.0226782,34.5410628 C92.6344147,34.5410628 94.852257,36.2678744 95.6136739,38.647343 L52.620473,38.647343 L52.620473,38.647343 Z" id="Shape"></path>
            </g>
        </g>
    </g>
</svg>