<?xml version="1.0" encoding="UTF-8"?>
<svg width="40px" height="40px" viewBox="0 0 40 40" version="1.1" xmlns="http://www.w3.org/2000/svg" xmlns:xlink="http://www.w3.org/1999/xlink">
    <!-- Generator: Sketch 46.2 (44496) - http://www.bohemiancoding.com/sketch -->
    <title>vk</title>
    <desc>Created with Sketch.</desc>
    <defs></defs>
    <g id="Welcome" stroke="none" stroke-width="1" fill="none" fill-rule="evenodd">
        <g id="assets" transform="translate(-135.000000, -32.000000)">
            <g id="vk" transform="translate(135.000000, 32.000000)">
                <path d="M19.4672438,28.3161404 L21.0166657,28.3161404 C21.0166657,28.3161404 21.4848009,28.2649123 21.7241483,28.0080702 C21.9441366,27.7722807 21.937097,27.3294737 21.937097,27.3294737 C21.937097,27.3294737 21.9068266,25.2564912 22.8716075,24.9512281 C23.823365,24.6505263 25.0450923,26.9547368 26.3396797,27.8407018 C27.3188918,28.5112281 28.0629804,28.3642105 28.0629804,28.3642105 L31.525773,28.3161404 C31.525773,28.3161404 33.336717,28.2045614 32.4778825,26.7852632 C32.4078382,26.6691228 31.977717,25.7350877 29.9034909,23.8157895 C27.7321179,21.8070175 28.0232065,22.1319298 30.638428,18.657193 C32.2311436,16.5410526 32.8678779,15.2491228 32.6686564,14.6957895 C32.4792904,14.1687719 31.3078965,14.3080702 31.3078965,14.3080702 L27.409351,14.3319298 C27.409351,14.3319298 27.1200224,14.2926316 26.9056657,14.4203509 C26.6962368,14.5452632 26.56178,14.8375439 26.56178,14.8375439 C26.56178,14.8375439 25.9447566,16.4747368 25.1218242,17.8677193 C23.3858522,20.8059649 22.691745,20.9617544 22.408048,20.7789474 C21.747731,20.3536842 21.9128103,19.0705263 21.9128103,18.1589474 C21.9128103,15.3112281 22.3460993,14.1238596 21.069111,13.8164912 C20.6453254,13.714386 20.3331179,13.6470175 19.2493674,13.6361404 C17.8583371,13.6221053 16.6809594,13.6403509 16.0143068,13.9659649 C15.5708103,14.1824561 15.2286844,14.6649123 15.4374093,14.6926316 C15.6950597,14.7270175 16.2782928,14.8494737 16.5876844,15.2691228 C16.9875352,15.8112281 16.9734559,17.0277193 16.9734559,17.0277193 C16.9734559,17.0277193 17.2029478,20.38 16.4373883,20.7964912 C15.9118802,21.0817544 15.1910224,20.4989474 13.6433604,17.8329825 C12.8503464,16.4673684 12.2516261,14.9578947 12.2516261,14.9578947 C12.2516261,14.9578947 12.1361762,14.6757895 11.9302671,14.5245614 C11.6803604,14.3417544 11.3315469,14.2838596 11.3315469,14.2838596 L7.62659114,14.3080702 C7.62659114,14.3080702 7.07081259,14.3235088 6.86631142,14.5645614 C6.68468904,14.7789474 6.85188019,15.2224561 6.85188019,15.2224561 C6.85188019,15.2224561 9.75185455,21.9866667 13.0361925,25.3954386 C16.048097,28.5210526 19.4672438,28.3161404 19.4672438,28.3161404" id="Fill-4" fill="#CED0D7"></path>
                <rect id="Rectangle-23-Copy" stroke="#CED0D7" x="0.5" y="0.5" width="39" height="39" rx="8"></rect>
            </g>
        </g>
    </g>
</svg>