<?xml version="1.0" encoding="UTF-8"?>
<svg width="45px" height="39px" viewBox="0 0 45 39" version="1.1" xmlns="http://www.w3.org/2000/svg" xmlns:xlink="http://www.w3.org/1999/xlink">
    <!-- Generator: Sketch 46.2 (44496) - http://www.bohemiancoding.com/sketch -->
    <title>”</title>
    <desc>Created with Sketch.</desc>
    <defs></defs>
    <g id="Welcome" stroke="none" stroke-width="1" fill="none" fill-rule="evenodd">
        <g id="assets" transform="translate(-58.000000, -2690.000000)" fill="#487914">
            <path d="M61.3071895,2729 L58,2723.47015 C61.6427197,2721.04476 64.3507537,2718.44964 66.124183,2715.6847 C67.8976124,2712.91976 68.7843137,2709.45151 68.7843137,2705.27985 C68.4967306,2705.37687 68.1132922,2705.42537 67.6339869,2705.42537 C65.620905,2705.42537 63.8475022,2704.79478 62.3137255,2703.53358 C60.7799488,2702.27238 60.0130719,2700.47762 60.0130719,2698.14925 C60.0130719,2695.62685 60.732019,2693.63807 62.1699346,2692.18284 C63.6078503,2690.7276 65.4291829,2690 67.6339869,2690 C70.4139573,2690 72.6187282,2691.13991 74.248366,2693.41978 C75.8780038,2695.69964 76.6928105,2698.97386 76.6928105,2703.24254 C76.6928105,2709.06346 75.3747408,2714.08393 72.7385621,2718.3041 C70.1023833,2722.52427 66.2919639,2726.08954 61.3071895,2729 Z M86.6143791,2729 L83.3071895,2723.47015 C86.9499093,2721.04476 89.6579432,2718.44964 91.4313725,2715.6847 C93.2048019,2712.91976 94.0915033,2709.45151 94.0915033,2705.27985 C93.8039201,2705.37687 93.4204817,2705.42537 92.9411765,2705.42537 C90.9280945,2705.42537 89.1546918,2704.79478 87.620915,2703.53358 C86.0871383,2702.27238 85.3202614,2700.47762 85.3202614,2698.14925 C85.3202614,2695.62685 86.0392085,2693.63807 87.4771242,2692.18284 C88.9150399,2690.7276 90.7363724,2690 92.9411765,2690 C95.7211468,2690 97.9259178,2691.13991 99.5555556,2693.41978 C101.185193,2695.69964 102,2698.97386 102,2703.24254 C102,2709.06346 100.68193,2714.08393 98.0457516,2718.3041 C95.4095729,2722.52427 91.5991535,2726.08954 86.6143791,2729 Z" id="”"></path>
        </g>
    </g>
</svg>