<svg width="96" height="69" xmlns="http://www.w3.org/2000/svg"><g stroke="#487914" stroke-width="3" fill="none" fill-rule="evenodd"><path d="M90.987 44.5C90.398 45.092 71.741 67 48 67 24.26 67 4.424 45.092 5.013 44.5 5.602 43.908 24.259 22 48 22c23.74 0 43.576 21.908 42.987 22.5z"/><path d="M2 20c.63-.536 20.592-18 45.993-18 25.4 0 46.623 17.464 45.993 18" stroke-linecap="round" stroke-linejoin="round"/><path d="M70 45c0 12.15-9.85 22-22 22s-22-9.85-22-22 9.85-22 22-22 22 9.85 22 22z"/><path d="M58 44.5a9.5 9.5 0 1 1-19 0 9.5 9.5 0 0 1 19 0z"/></g></svg>