<svg width="103" height="46" xmlns="http://www.w3.org/2000/svg"><g fill="#FFFF1B"><path d="M101.332 35.944H78.628c7.079-3.437 12.925-8.453 17.035-14.649.349-.526.349-1.2 0-1.726-3.882-5.852-9.455-10.758-16.115-14.185C72.703 1.862 64.865 0 56.883 0 45.6 0 34.916 3.652 26.627 10.314c-4.44-3.552-9.781-6.34-15.533-8.097a1.725 1.725 0 0 0-1.45.206 1.593 1.593 0 0 0-.721 1.229c-.128 2.092.004 9.261 6.584 16.78-5.593 6.393-6.527 12.53-6.603 15.512H1.668C.747 35.944 0 36.663 0 37.55s.747 1.604 1.668 1.604h13.404l3.237 4.151C19.625 44.992 21.72 46 23.915 46h55.17c2.194 0 4.29-1.008 5.606-2.696l3.237-4.15h13.404c.921 0 1.668-.719 1.668-1.605 0-.887-.747-1.605-1.668-1.605zm-9.074-15.512c-3.521 4.975-8.462 9.19-14.224 12.179-3.383-3.254-5.245-7.579-5.245-12.18 0-4.56 1.91-8.962 5.255-12.18 5.794 2.996 10.688 7.191 14.214 12.18zm-19.29 13.693c0 .645-.186 1.272-.531 1.819h-6.28a3.403 3.403 0 0 1-.53-1.819c0-1.946 1.646-3.53 3.67-3.53s3.67 1.584 3.67 3.53zM74.89 6.783c-3.476 3.73-5.44 8.61-5.44 13.65 0 2.463.452 4.86 1.316 7.103a7.269 7.269 0 0 0-3.849.25A21.731 21.731 0 0 1 65.67 20.5c0-5.552 2.085-10.827 5.89-14.96 1.13.37 2.24.787 3.33 1.244zM12.325 34.841c.31-2.914 1.62-8.082 6.632-13.323a1.56 1.56 0 0 0 0-2.172c-5.013-5.241-6.322-10.409-6.632-13.322 4.928 1.79 9.452 4.393 13.191 7.605.633.544 1.59.544 2.223 0C35.561 6.91 45.911 3.21 56.882 3.21c3.804 0 7.569.456 11.192 1.336-3.362 4.1-5.337 9.051-5.684 14.283H51.5l-.034.001c-.478-1.758-1.477-3.46-2.946-4.873-3.08-2.962-7.488-3.947-10.97-2.451-.375.161-.675.45-.843.81-.932 2.007-.937 4.333-.129 6.513h-11.73c-.922 0-1.669.718-1.669 1.605 0 .886.747 1.604 1.669 1.604h13.628c.244.286.503.563.78.83 2.122 2.04 4.873 3.142 7.518 3.142.841 0 1.671-.115 2.468-.343l2.883 2.772c-.218.23-.422.473-.613.725a8.922 8.922 0 0 0-5.351-1.777c-2.775 0-5.377 1.29-7.025 3.424h-.094a7.154 7.154 0 0 0-4.181 1.334 41.459 41.459 0 0 1-7.122-4.909 1.718 1.718 0 0 0-2.223 0c-3.74 3.213-8.263 5.816-13.19 7.606zm50.226 1.103h-9.038a5.026 5.026 0 0 1-.345-1.819c0-2.89 2.446-5.241 5.45-5.241 1.755 0 3.406.833 4.428 2.2a6.489 6.489 0 0 0-.495 4.86zm-3.932-10.27c-1.356 0-2.64.297-3.789.827l-3.323-3.196c.113-.415.191-.839.235-1.268h10.64c.1 1.654.363 3.283.787 4.874a9.02 9.02 0 0 0-4.55-1.237zm-14.24-4.685l1.847 1.777c-1.613-.146-3.293-.903-4.61-2.17-1.886-1.814-2.69-4.348-2.086-6.377 2.11-.581 4.744.192 6.63 2.006 1.212 1.165 1.974 2.626 2.207 4.06l-1.63-1.565a1.715 1.715 0 0 0-2.359 0 1.561 1.561 0 0 0 0 2.27zm5.664 14.955H35.777c.608-1.141 1.842-1.926 3.265-1.926.178 0 .377.02.644.067.699.119 1.4-.2 1.747-.794a5.485 5.485 0 0 1 4.728-2.696c1.471 0 2.878.587 3.9 1.619a8.133 8.133 0 0 0-.23 1.911c0 .614.075 1.223.212 1.819zm-32.037 0c3.116-1.502 6.023-3.315 8.62-5.393a44.957 44.957 0 0 0 6.088 4.105 6.53 6.53 0 0 0-.477 1.288h-14.23zm64.016 5.434a3.74 3.74 0 0 1-2.937 1.412h-55.17a3.74 3.74 0 0 1-2.937-1.412l-1.735-2.225h64.514l-1.735 2.225z"/><path d="M81.5 20c1.378 0 2.5-1.122 2.5-2.5S82.878 15 81.5 15a2.503 2.503 0 0 0-2.5 2.5c0 1.378 1.122 2.5 2.5 2.5z"/></g></svg>