<svg width="40" height="40" xmlns="http://www.w3.org/2000/svg"><g fill="none" fill-rule="evenodd"><path d="M14.585 7.793c-1.293.058-2.176.263-2.948.562A5.956 5.956 0 0 0 9.486 9.75a5.921 5.921 0 0 0-1.401 2.145c-.3.77-.505 1.65-.564 2.938-.06 1.29-.073 1.703-.073 4.99 0 3.288.013 3.7.073 4.991.059 1.29.264 2.17.564 2.939.31.796.725 1.471 1.401 2.144a5.957 5.957 0 0 0 2.151 1.396c.773.3 1.655.504 2.948.563 1.296.058 1.708.073 5.006.073 3.3 0 3.712-.014 5.007-.073 1.293-.06 2.176-.263 2.948-.563a5.976 5.976 0 0 0 2.15-1.396 5.944 5.944 0 0 0 1.402-2.144c.3-.77.506-1.65.563-2.939.06-1.291.073-1.703.073-4.99 0-3.288-.014-3.7-.073-4.991-.058-1.289-.263-2.169-.563-2.938a5.951 5.951 0 0 0-1.401-2.145 5.956 5.956 0 0 0-2.15-1.396c-.773-.3-1.656-.505-2.948-.562-1.295-.059-1.709-.074-5.007-.074-3.299 0-3.711.014-5.007.074m.1 21.885c-1.184-.054-1.828-.25-2.255-.417a3.778 3.778 0 0 1-1.397-.905 3.741 3.741 0 0 1-.909-1.391c-.166-.427-.363-1.068-.418-2.248-.058-1.276-.07-1.66-.07-4.892 0-3.233.013-3.615.07-4.892.055-1.18.253-1.821.418-2.248.221-.565.484-.968.909-1.393a3.75 3.75 0 0 1 1.397-.905c.427-.166 1.07-.363 2.255-.417 1.28-.058 1.664-.07 4.906-.07 3.243 0 3.627.013 4.908.07 1.184.054 1.827.252 2.255.417.567.219.971.482 1.397.905.425.424.688.828.908 1.393.167.426.364 1.067.418 2.248.059 1.277.07 1.659.07 4.892 0 3.231-.011 3.615-.07 4.892-.054 1.18-.252 1.821-.418 2.248-.22.565-.483.968-.908 1.391-.425.423-.83.686-1.397.905-.428.167-1.071.363-2.255.417-1.28.059-1.665.07-4.908.07-3.242 0-3.626-.011-4.906-.07m9.932-16.316c0 .802.652 1.453 1.457 1.453s1.458-.65 1.458-1.453c0-.802-.652-1.452-1.458-1.452-.805 0-1.457.65-1.457 1.452m-11.261 6.463c0 3.433 2.791 6.216 6.235 6.216 3.444 0 6.236-2.783 6.236-6.216 0-3.434-2.792-6.216-6.236-6.216s-6.235 2.782-6.235 6.216m2.188 0a4.041 4.041 0 0 1 4.047-4.036 4.042 4.042 0 0 1 4.049 4.036 4.042 4.042 0 0 1-4.049 4.035 4.042 4.042 0 0 1-4.047-4.035" fill="#CED0D7"/><rect stroke="#CED0D7" x=".5" y=".5" width="39" height="39" rx="8"/></g></svg>