<svg width="49" height="81" xmlns="http://www.w3.org/2000/svg"><g fill="#487914"><path d="M32.373 32.555C41.541 32.555 49 25.253 49 16.278 49 7.302 41.541 0 32.373 0H16.627C7.459 0 0 7.302 0 16.278c0 8.975 7.459 16.277 16.627 16.277h3.387v47.121c0 .731.605 1.324 1.351 1.324h6.27c.746 0 1.352-.593 1.352-1.324v-.794h11.895c.747 0 1.352-.592 1.352-1.323V69.44c0-.73-.605-1.323-1.352-1.323h-5.01v-5.383c0-.73-.606-1.323-1.352-1.323h-5.534V32.555h3.387zM2.703 16.278c0-7.516 6.246-13.63 13.923-13.63h15.747c7.677 0 13.923 6.114 13.923 13.63 0 7.516-6.246 13.63-13.923 13.63H16.627c-7.678 0-13.923-6.114-13.923-13.63zm30.464 47.78v5.383c0 .731.606 1.324 1.352 1.324h5.011v5.47H28.986V64.06h4.181zm-6.884 14.295h-3.566V32.555h3.566v45.798z"/><path d="M41 16.5c0-4.687-3.897-8.5-8.686-8.5H16.686C11.896 8 8 11.813 8 16.5c0 4.687 3.897 8.5 8.686 8.5h15.628C37.104 25 41 21.187 41 16.5zm-30 0c0-3.033 2.631-5.5 5.866-5.5h15.268C35.37 11 38 13.467 38 16.5S35.369 22 32.134 22H16.866C13.63 22 11 19.533 11 16.5z"/></g></svg>