<svg width="119" height="52" xmlns="http://www.w3.org/2000/svg"><g fill="#FFFF1B" fill-rule="evenodd"><path d="M74.399 43.808c2.563-3.372 2.66-7.84.12-12.43.94-2.155 1.024-4.524.119-6.539a1.47 1.47 0 0 0-.745-.74c-1.846-.82-3.985-.824-5.99-.11a29.917 29.917 0 0 0-2.784-1.878c-10.48-6.225-32.097-11.436-44.878-9.09l-3.29-2.79c.79-.89 1.269-2 1.43-3.32.222-1.83-.315-3.607-1.475-4.877A6.234 6.234 0 0 0 12.21 0a6.206 6.206 0 0 0-4.614 2.163 6.168 6.168 0 0 0-1.401 4.978h-.02A6.2 6.2 0 0 0 .83 10.21c-1.286 2.173-1.057 5.048.558 6.992a6.233 6.233 0 0 0 4.749 2.263h.048a6.194 6.194 0 0 0 4.713-2.163l.063-.076.889.755c-5.81 6.313-5.782 13.05-4.673 17.684.914 3.822 2.665 6.79 3.568 8.144H74.4zm-8.113-15.395c1.667-1.658 3.994-2.365 5.859-1.834.533 1.855-.178 4.171-1.844 5.83-1.07 1.065-2.413 1.735-3.73 1.94l1.439-1.433a1.46 1.46 0 0 0 0-2.074 1.48 1.48 0 0 0-2.085 0l-1.631 1.624c.133-1.418.829-2.895 1.992-4.053zm-2.68-3.783c.5.297.988.611 1.466.937a10.33 10.33 0 0 0-.87.772c-2.471 2.46-3.445 5.88-2.574 8.78L59.8 36.937a6.164 6.164 0 0 0-3.171-.948c-.512-3.303-2.173-6.272-4.765-8.472-4.065-3.449-11.085-5.907-17.875-8.285-3.606-1.262-7.083-2.48-9.755-3.734 11.486-.744 29.499 3.266 39.373 9.132zm-3.862 17.516c0 .59-.164 1.162-.47 1.662h-5.547a3.188 3.188 0 0 1-.47-1.662 3.238 3.238 0 0 1 3.244-3.227 3.24 3.24 0 0 1 3.243 3.227zM21.253 17.272C24.299 18.95 28.56 20.442 33.01 22c6.535 2.288 13.293 4.654 16.94 7.75a10.922 10.922 0 0 1 3.792 6.883 6.13 6.13 0 0 0-.801.477 7.807 7.807 0 0 0-5.874-2.689c-4.281 0-7.764 3.465-7.764 7.725 0 .561.066 1.118.187 1.662h-3.707a6.194 6.194 0 0 0-6.012-4.694l-.07.001c-1.552-2.516-3.062-5.284-4.527-7.97-2.25-4.127-4.403-8.079-6.548-10.807l2.627-3.066zM50.54 43.808h-7.985a4.73 4.73 0 0 1-.304-1.662c0-2.642 2.16-4.792 4.815-4.792 1.55 0 3.009.762 3.91 2.013a6.098 6.098 0 0 0-.436 4.441zm-17.885 0h-18.35a3.246 3.246 0 0 1 2.886-1.76c.158 0 .333.018.569.06a1.477 1.477 0 0 0 1.543-.725c.859-1.52 2.459-2.465 4.178-2.465a4.804 4.804 0 0 1 3.855 1.971c.099.158.196.318.295.474.04.063.085.121.132.175.33.441.884.67 1.438.57.236-.042.412-.06.569-.06 1.257 0 2.347.717 2.885 1.76zM11.532 13.856a1.476 1.476 0 0 0-2.334.593c-.146.38-.324.691-.545.948a3.241 3.241 0 0 1-2.47 1.133H6.16a3.24 3.24 0 0 1-2.5-1.199c-.826-.994-.948-2.522-.29-3.633a3.262 3.262 0 0 1 3.336-1.58 2.34 2.34 0 0 0 2.15-.79 2.137 2.137 0 0 0 .39-2.103 3.228 3.228 0 0 1 3.013-4.29 3.256 3.256 0 0 1 2.466 1.072c.575.63.847 1.583.73 2.551-.138 1.131-.597 1.844-1.534 2.381a1.465 1.465 0 0 0-.22 2.388l5.005 4.247.076.062-2.17 2.532c-.025-.02-.05-.044-.074-.065l-5.005-4.247zm1.04 27.324c-.814-1.388-1.9-3.568-2.528-6.195-1.36-5.679.004-10.755 4.048-15.1l.532.45c2.427 2.06 5.114 6.99 7.959 12.207a366.323 366.323 0 0 0 1.93 3.516 7.528 7.528 0 0 0-1.031-.073 7.761 7.761 0 0 0-6.207 3.13h-.083a6.188 6.188 0 0 0-4.62 2.065zm57.62 2.628h-7.731a6.102 6.102 0 0 0-.612-4.76l1.947-1.938a7.713 7.713 0 0 0 1.949.246c2.336 0 4.767-1.008 6.64-2.873a6.99 6.99 0 0 0 .24-.247c1.09 2.676 1.669 6.651-2.432 9.572zm31.914-13.403c2.104 1.786 7.919 5.94 12.614 7.258l-4.376-6.565c-.28-.42-.28-.966 0-1.386l4.377-6.565c-4.696 1.32-10.511 5.471-12.615 7.258m15.224 10.167c-3.762 0-8.4-2.444-11.626-4.494-1.551-.985-6.611-4.306-6.611-5.673 0-1.904 11.969-10.168 18.237-10.168a1.251 1.251 0 0 1 1.04 1.943l-5.484 8.225 5.484 8.224a1.25 1.25 0 0 1-1.04 1.943"/><path d="M74.206 43.244l-.406-2.467c12.493-2.054 22.364-8.14 25.453-10.372-3.015-2.178-12.506-8.045-24.611-10.228-1.748-.315-1.597-2.098-1.516-3.056.029-.345.063-.734.063-1.155 0-1.034-.158-1.91-.326-2.549a14.667 14.667 0 0 0-3.485 2.584c-.471.471-.898.99-1.274 1.447-.87 1.056-1.555 1.891-2.583 1.891-2.297 0-5.741.385-9.958 1.113l-.425-2.464c4.292-.74 7.713-1.127 10.172-1.148.209-.185.582-.638.864-.98.412-.502.88-1.07 1.436-1.627 2.725-2.725 5.469-3.66 5.584-3.699l1.029-.343.485.97c.04.08.98 1.995.98 4.805 0 .497-.037.958-.071 1.366-.013.148-.027.322-.036.476 7.882 1.492 14.513 4.43 18.72 6.655 1.91 1.01 8.142 4.424 8.142 5.942 0 1.601-7.008 5.348-8.413 6.083-4.446 2.326-11.495 5.386-19.824 6.756"/><path d="M90.576 31.655H73.35a1.25 1.25 0 0 1 0-2.5h17.226a1.25 1.25 0 0 1 0 2.5M9.324 42.808a1.47 1.47 0 0 0-1.474 1.467c0 .81.66 1.467 1.474 1.467h11.842l2.86 3.794A6.228 6.228 0 0 0 28.978 52h48.743c1.938 0 3.79-.921 4.953-2.464l2.86-3.794h11.842a1.47 1.47 0 0 0 1.474-1.467c0-.81-.66-1.467-1.474-1.467H9.324zm70.992 4.968a3.266 3.266 0 0 1-2.595 1.29H28.978a3.264 3.264 0 0 1-2.594-1.29l-1.533-2.034H81.85l-1.533 2.034z"/></g></svg>