<svg width="66" height="83" xmlns="http://www.w3.org/2000/svg"><g fill="#487914"><path d="M17.345 44.664h1.72v6A1.34 1.34 0 0 0 20.409 52h5.415a1.34 1.34 0 0 0 1.345-1.337v-6h2.689v6A1.34 1.34 0 0 0 31.203 52h5.414a1.34 1.34 0 0 0 1.345-1.337v-6h1.72a1.34 1.34 0 0 0 1.345-1.336 1.34 1.34 0 0 0-1.345-1.337h-.805V23.3h3.676l11.739 6.65c2.178 1.245 4.019 4.409 4.019 6.907v9.04a1.34 1.34 0 0 0 1.344 1.336A1.34 1.34 0 0 0 61 45.896v-9.039c0-3.451-2.358-7.503-5.372-9.227l-12.053-6.828a1.35 1.35 0 0 0-.665-.175h-4.034v-6.834a1.34 1.34 0 0 0-1.344-1.337h-2.265V1.336A1.34 1.34 0 0 0 33.922 0H23.105a1.34 1.34 0 0 0-1.345 1.337v11.12h-2.265a1.34 1.34 0 0 0-1.345 1.336V41.99h-.805A1.34 1.34 0 0 0 16 43.327a1.34 1.34 0 0 0 1.345 1.337zm7.134 4.663h-2.725v-4.663h2.725v4.663zm10.794 0h-2.726v-4.663h2.726v4.663zM24.449 2.673h8.128v9.783H24.45V2.673zM20.84 15.13h15.348v26.86H20.84V15.13z"/><path d="M59.268 49.634c-3.712 0-6.732 2.987-6.732 6.658 0 3.22 2.323 5.912 5.4 6.526v17.547H3.353l3.267-7.531c.95-2.193 3.792-4.045 6.205-4.045h41.043c.736 0 1.332-.59 1.332-1.317 0-.728-.596-1.318-1.332-1.318H49.87v-28.55c0-.475-.258-.912-.675-1.146l-5.86-3.286a1.34 1.34 0 0 0-1.817.496 1.31 1.31 0 0 0 .502 1.796l5.186 2.907v16.603H17.35c-.736 0-1.332.59-1.332 1.318v5.27c0 .727.596 1.317 1.332 1.317h25.86c.735 0 1.332-.59 1.332-1.318 0-.727-.597-1.317-1.332-1.317H18.683v-2.635h28.524v8.546H12.825c-3.48 0-7.282 2.477-8.654 5.64L.108 81.163c-.177.407-.135.875.112 1.245.246.37.664.592 1.112.592h57.936c.736 0 1.332-.59 1.332-1.317V62.818c3.076-.614 5.4-3.306 5.4-6.526 0-3.671-3.02-6.658-6.732-6.658zm0 10.68c-2.243 0-4.068-1.804-4.068-4.022s1.825-4.023 4.068-4.023c2.243 0 4.067 1.805 4.067 4.023s-1.824 4.022-4.067 4.022z"/></g></svg>