<svg width="111" height="50" xmlns="http://www.w3.org/2000/svg"><path d="M109.202 38.647H99.32c-.74-3.86-3.794-6.898-7.645-7.584a9.583 9.583 0 0 0-1.587-3.827c2.316-3.183 2.934-7.18 1.492-10.434a1.803 1.803 0 0 0-.909-.915c-3.008-1.354-6.657-.906-9.697 1.048a7.552 7.552 0 0 0-6.295-3.408c-4.104 0-7.452 3.317-7.547 7.43a11.523 11.523 0 0 0-4.777-4.364c.446-.97.697-2.05.697-3.187 0-3.635-2.542-6.682-5.93-7.432C56.379 2.56 53.354 0 49.747 0a7.492 7.492 0 0 0-4.795 1.733A7.492 7.492 0 0 0 40.157 0c-3.608 0-6.632 2.561-7.377 5.974-3.387.75-5.929 3.797-5.929 7.432 0 4.195 3.388 7.608 7.552 7.608a7.49 7.49 0 0 0 5.273-2.191 55.609 55.609 0 0 1 2.037 6.521 8.062 8.062 0 0 0-1.852-.223 8.826 8.826 0 0 0-3.887.901 11.292 11.292 0 0 0-9.243-4.766c-.341 0-.688.025-1.038.063A6.833 6.833 0 0 0 24.3 18.07a1.789 1.789 0 0 0-2.527-.283 1.82 1.82 0 0 0-.28 2.547c.255.322.42.66.525.984a9.748 9.748 0 0 0-1.04-.063c-6.279 0-11.387 5.147-11.387 11.473 0 2.133.572 4.162 1.625 5.918H1.798A1.807 1.807 0 0 0 0 40.46c0 1 .805 1.812 1.798 1.812h14.444l3.489 4.686A7.569 7.569 0 0 0 25.772 50h59.456a7.569 7.569 0 0 0 6.041-3.043l3.489-4.686h14.444c.993 0 1.798-.812 1.798-1.812s-.805-1.812-1.798-1.812zm-27.81-17.43c2.033-2.048 4.872-2.921 7.146-2.266.652 2.292-.215 5.152-2.248 7.2-1.419 1.43-3.23 2.285-4.968 2.45l1.991-2.006a1.821 1.821 0 0 0 0-2.562 1.789 1.789 0 0 0-2.543 0L79.015 25.8c.25-1.62 1.072-3.269 2.377-4.584zM74.68 17.15a3.96 3.96 0 0 1 3.534 2.197 12.35 12.35 0 0 0-1.754 2.68 9.232 9.232 0 0 0-5.72-.545 4.056 4.056 0 0 1-.015-.347c0-2.197 1.774-3.985 3.955-3.985zM64.3 23.26a8.958 8.958 0 0 0-1.127-.073c-4.657 0-8.54 3.406-9.325 7.875a9.3 9.3 0 0 0-.977.23c-.865-2.374-2.614-4.296-4.828-5.333a55.795 55.795 0 0 1 2.186-7.135 7.49 7.49 0 0 0 5.272 2.19c1.68 0 3.233-.557 4.488-1.494a7.856 7.856 0 0 1 4.311 3.74zm-23.023-9.508a1.79 1.79 0 0 0-3.085.71c-.473 1.724-2.031 2.928-3.788 2.928-2.181 0-3.956-1.788-3.956-3.985 0-2.198 1.775-3.986 3.956-3.986.993 0 1.798-.81 1.798-1.811 0-2.198 1.774-3.986 3.956-3.986 1.326 0 2.558.67 3.296 1.79.333.506.896.81 1.498.81.603 0 1.166-.304 1.499-.81a3.942 3.942 0 0 1 3.296-1.79c2.181 0 3.956 1.788 3.956 3.986 0 1 .805 1.811 1.798 1.811 2.181 0 3.956 1.788 3.956 3.986 0 2.197-1.775 3.985-3.956 3.985-1.757 0-3.315-1.204-3.79-2.927a1.804 1.804 0 0 0-1.732-1.328c-.511 0-1.006.22-1.352.617-.958 1.1-2.263 1.706-3.675 1.706s-2.717-.606-3.675-1.706zm5.065 5.206a59.49 59.49 0 0 0-1.39 4.522 59.382 59.382 0 0 0-1.39-4.522c.458.078.921.123 1.39.123.47 0 .933-.045 1.39-.123zm-6.48 9.785c.343 0 .696.045 1.081.138a4.786 4.786 0 0 0 2.265 0 4.579 4.579 0 0 1 1.08-.138c3.077 0 5.58 2.655 5.58 5.918 0 1.482-.526 2.9-1.458 3.985H35.74a6.122 6.122 0 0 1-1.456-3.985c0-3.263 2.502-5.918 5.578-5.918zm-24 9.903a7.806 7.806 0 0 1-2.675-5.918c0-4.328 3.495-7.85 7.791-7.85.721 0 1.463.13 2.335.407.353.113.732.113 1.085 0 .871-.277 1.613-.407 2.334-.407a7.727 7.727 0 0 1 6.375 3.335 9.716 9.716 0 0 0-2.42 6.448c0 1.39.295 2.748.843 3.985H15.86zm72.531 6.136a3.965 3.965 0 0 1-3.164 1.594H25.772a3.964 3.964 0 0 1-3.164-1.594l-1.87-2.512h69.524l-1.87 2.512zM52.62 38.647a9.853 9.853 0 0 0 .836-3.738 5.807 5.807 0 0 1 2.044-.368c.477 0 .934-.19 1.271-.53.338-.34.527-.801.527-1.282 0-3.263 2.635-5.917 5.874-5.917.944 0 1.881.25 2.784.746a1.789 1.789 0 0 0 2.259-.453c1.134-1.414 2.79-2.226 4.546-2.226.93 0 1.831.228 2.649.657a9.748 9.748 0 0 0 .22 3.673l-2.222 2.24a1.821 1.821 0 0 0 0 2.561 1.786 1.786 0 0 0 2.542 0l2.122-2.136a9.227 9.227 0 0 0 2.66.387c2.32 0 4.719-.826 6.764-2.377a5.95 5.95 0 0 1 .729 2.845c0 1.001.805 1.812 1.798 1.812 2.611 0 4.83 1.727 5.59 4.106H52.62z" fill="#FFFF1B"/></svg>