<svg width="40" height="40" xmlns="http://www.w3.org/2000/svg"><g fill="none" fill-rule="evenodd"><path d="M19.467 28.316h1.55s.468-.051.707-.308c.22-.236.213-.679.213-.679s-.03-2.073.935-2.378c.951-.3 2.173 2.004 3.468 2.89.979.67 1.723.523 1.723.523l3.463-.048s1.81-.111.952-1.53c-.07-.117-.5-1.05-2.575-2.97-2.17-2.009-1.88-1.684.735-5.159 1.593-2.116 2.23-3.408 2.03-3.961-.189-.527-1.36-.388-1.36-.388l-3.899.024s-.289-.04-.503.088c-.21.125-.344.418-.344.418s-.617 1.637-1.44 3.03c-1.736 2.938-2.43 3.094-2.714 2.91-.66-.424-.495-1.707-.495-2.62 0-2.847.433-4.034-.844-4.342-.424-.102-.736-.169-1.82-.18-1.39-.014-2.568.004-3.235.33-.443.216-.785.699-.577.727.258.034.841.156 1.15.576.4.542.386 1.759.386 1.759s.23 3.352-.536 3.768c-.525.286-1.246-.297-2.794-2.963-.793-1.366-1.391-2.875-1.391-2.875s-.116-.282-.322-.433a1.613 1.613 0 0 0-.598-.241l-3.705.024s-.556.016-.76.257c-.182.214-.015.657-.015.657s2.9 6.765 6.184 10.173c3.012 3.126 6.431 2.921 6.431 2.921" fill="#CED0D7"/><rect stroke="#CED0D7" x=".5" y=".5" width="39" height="39" rx="8"/></g></svg>