<svg width="45" height="39" xmlns="http://www.w3.org/2000/svg"><path d="M3.307 39L0 33.47c3.643-2.425 6.35-5.02 8.124-7.785 1.774-2.765 2.66-6.233 2.66-10.405-.287.097-.67.145-1.15.145-2.013 0-3.786-.63-5.32-1.891-1.534-1.262-2.3-3.056-2.3-5.385 0-2.522.718-4.51 2.156-5.966C5.608.728 7.43 0 9.634 0c2.78 0 4.985 1.14 6.614 3.42 1.63 2.28 2.445 5.554 2.445 9.823 0 5.82-1.318 10.84-3.954 15.061C12.102 32.524 8.292 36.09 3.307 39zm25.307 0l-3.307-5.53c3.643-2.425 6.35-5.02 8.124-7.785 1.774-2.765 2.66-6.233 2.66-10.405-.287.097-.67.145-1.15.145-2.013 0-3.786-.63-5.32-1.891-1.534-1.262-2.3-3.056-2.3-5.385 0-2.522.718-4.51 2.156-5.966C30.915.728 32.737 0 34.941 0c2.78 0 4.985 1.14 6.615 3.42C43.186 5.7 44 8.974 44 13.243c0 5.82-1.318 10.84-3.954 15.061C37.41 32.524 33.599 36.09 28.614 39z" fill="#487914" fill-rule="evenodd"/></svg>